<svg width="155" height="155" viewBox="0 0 155 155" fill="none" xmlns="http://www.w3.org/2000/svg">
<rect width="155" height="155" rx="77.5" fill="#C3DEF6"/>
<path d="M102.915 77.223V79.4851C102.915 88.5334 100.653 90.7701 91.6304 90.7701H63.367C54.3441 90.7701 52.082 88.508 52.082 79.4851V63.3709C52.082 54.348 54.3441 52.0859 63.367 52.0859H67.332" stroke="#1B4266" stroke-width="3.8125" stroke-linecap="round" stroke-linejoin="round"/>
<path d="M77.5 90.7656V102.915" stroke="#1B4266" stroke-width="3.8125" stroke-linecap="round" stroke-linejoin="round"/>
<path d="M52.082 80.0391H102.915" stroke="#1B4266" stroke-width="3.8125" stroke-linecap="round" stroke-linejoin="round"/>
<path d="M66.0625 102.914H88.9375" stroke="#1B4266" stroke-width="3.8125" stroke-linecap="round" stroke-linejoin="round"/>
<path d="M92.3961 70.816H80.2978C76.7903 70.816 75.6211 68.4777 75.6211 66.1394V57.1927C75.6211 54.3969 77.9086 52.1094 80.7044 52.1094H92.3961C94.9886 52.1094 97.0728 54.1935 97.0728 56.786V66.1394C97.0728 68.7319 94.9886 70.816 92.3961 70.816Z" stroke="#1B4266" stroke-width="3.8125" stroke-linecap="round" stroke-linejoin="round"/>
<path d="M100.146 67.1329L97.0703 64.9725V57.9575L100.146 55.7971C101.671 54.755 102.916 55.3904 102.916 57.2458V65.7096C102.916 67.565 101.671 68.2004 100.146 67.1329Z" stroke="#1B4266" stroke-width="3.8125" stroke-linecap="round" stroke-linejoin="round"/>
</svg>
