<svg width="448" height="174" viewBox="0 0 448 174" fill="none" xmlns="http://www.w3.org/2000/svg">
<g filter="url(#filter0_d_2526_50064)">
<g clip-path="url(#clip0_2526_50064)">
<rect x="4" width="440" height="166" rx="3" fill="white"/>
<circle cx="443.5" cy="210.5" r="135.5" fill="#1B4266"/>
<path d="M414.085 132.337V133.635C414.085 138.827 412.787 140.11 407.61 140.11H391.393C386.216 140.11 384.918 138.812 384.918 133.635V124.389C384.918 119.212 386.216 117.914 391.393 117.914H393.668" stroke="white" stroke-width="2.1875" stroke-linecap="round" stroke-linejoin="round"/>
<path d="M399.5 140.109V147.08" stroke="white" stroke-width="2.1875" stroke-linecap="round" stroke-linejoin="round"/>
<path d="M384.918 133.961H414.085" stroke="white" stroke-width="2.1875" stroke-linecap="round" stroke-linejoin="round"/>
<path d="M392.938 147.086H406.063" stroke="white" stroke-width="2.1875" stroke-linecap="round" stroke-linejoin="round"/>
<path d="M408.047 128.663H401.105C399.093 128.663 398.422 127.321 398.422 125.98V120.846C398.422 119.242 399.734 117.93 401.339 117.93H408.047C409.534 117.93 410.73 119.126 410.73 120.613V125.98C410.73 127.467 409.534 128.663 408.047 128.663Z" stroke="white" stroke-width="2.1875" stroke-linecap="round" stroke-linejoin="round"/>
<path d="M412.495 126.549L410.73 125.309V121.284L412.495 120.045C413.37 119.447 414.085 119.811 414.085 120.876V125.732C414.085 126.797 413.37 127.161 412.495 126.549Z" stroke="white" stroke-width="2.1875" stroke-linecap="round" stroke-linejoin="round"/>
</g>
</g>
<defs>
<filter id="filter0_d_2526_50064" x="0" y="0" width="448" height="174" filterUnits="userSpaceOnUse" color-interpolation-filters="sRGB">
<feFlood flood-opacity="0" result="BackgroundImageFix"/>
<feColorMatrix in="SourceAlpha" type="matrix" values="0 0 0 0 0 0 0 0 0 0 0 0 0 0 0 0 0 0 127 0" result="hardAlpha"/>
<feOffset dy="4"/>
<feGaussianBlur stdDeviation="2"/>
<feComposite in2="hardAlpha" operator="out"/>
<feColorMatrix type="matrix" values="0 0 0 0 0 0 0 0 0 0 0 0 0 0 0 0 0 0 0.25 0"/>
<feBlend mode="normal" in2="BackgroundImageFix" result="effect1_dropShadow_2526_50064"/>
<feBlend mode="normal" in="SourceGraphic" in2="effect1_dropShadow_2526_50064" result="shape"/>
</filter>
<clipPath id="clip0_2526_50064">
<rect x="4" width="440" height="166" rx="3" fill="white"/>
</clipPath>
</defs>
</svg>
