<svg width="136" height="86" viewBox="0 0 136 86" fill="none" xmlns="http://www.w3.org/2000/svg">
<path d="M44.9005 73.1715H22.2538C10.9305 73.1715 7.16797 65.6465 7.16797 58.0856V27.914C7.16797 16.5906 10.9305 12.8281 22.2538 12.8281H44.9005C56.2238 12.8281 59.9863 16.5906 59.9863 27.914V58.0856C59.9863 69.409 56.188 73.1715 44.9005 73.1715Z" stroke="#2E6699" stroke-width="5.375" stroke-linecap="round" stroke-linejoin="round"/>
<path d="M69.946 61.2764L59.9844 54.2889V31.6781L69.946 24.6906C74.8194 21.2864 78.8327 23.3648 78.8327 29.3489V56.6539C78.8327 62.6381 74.8194 64.7164 69.946 61.2764Z" stroke="#2E6699" stroke-width="5.375" stroke-linecap="round" stroke-linejoin="round"/>
<path d="M41.207 39.4141C44.1756 39.4141 46.582 37.0076 46.582 34.0391C46.582 31.0705 44.1756 28.6641 41.207 28.6641C38.2385 28.6641 35.832 31.0705 35.832 34.0391C35.832 37.0076 38.2385 39.4141 41.207 39.4141Z" stroke="#2E6699" stroke-width="5.375" stroke-linecap="round" stroke-linejoin="round"/>
<path d="M93.0013 55.5391C100.92 55.5391 107.335 49.1249 107.335 41.2057V21.4974C107.335 13.5782 100.92 7.16406 93.0013 7.16406C85.0821 7.16406 78.668 13.5782 78.668 21.4974V41.2057C78.668 49.1249 85.0821 55.5391 93.0013 55.5391Z" stroke="white" stroke-width="10" stroke-linecap="round" stroke-linejoin="round"/>
<path d="M65.5859 34.5781V40.6698C65.5859 55.7915 77.8768 68.0823 92.9984 68.0823C108.12 68.0823 120.411 55.7915 120.411 40.6698V34.5781" stroke="white" stroke-width="10" stroke-linecap="round" stroke-linejoin="round"/>
<path d="M88.0195 23.0431C91.2445 21.8606 94.7562 21.8606 97.9812 23.0431" stroke="white" stroke-width="10" stroke-linecap="round" stroke-linejoin="round"/>
<path d="M90.1328 30.6341C92.032 30.1324 94.0028 30.1324 95.902 30.6341" stroke="white" stroke-width="10" stroke-linecap="round" stroke-linejoin="round"/>
<path d="M93 68.0859V78.8359" stroke="white" stroke-width="10" stroke-linecap="round" stroke-linejoin="round"/>
<path d="M93.0013 55.5391C100.92 55.5391 107.335 49.1249 107.335 41.2057V21.4974C107.335 13.5782 100.92 7.16406 93.0013 7.16406C85.0821 7.16406 78.668 13.5782 78.668 21.4974V41.2057C78.668 49.1249 85.0821 55.5391 93.0013 55.5391Z" stroke="#1B4266" stroke-width="5.375" stroke-linecap="round" stroke-linejoin="round"/>
<path d="M65.5859 34.5781V40.6698C65.5859 55.7915 77.8768 68.0823 92.9984 68.0823C108.12 68.0823 120.411 55.7915 120.411 40.6698V34.5781" stroke="#1B4266" stroke-width="5.375" stroke-linecap="round" stroke-linejoin="round"/>
<path d="M88.0195 23.0431C91.2445 21.8606 94.7562 21.8606 97.9812 23.0431" stroke="#1B4266" stroke-width="5.375" stroke-linecap="round" stroke-linejoin="round"/>
<path d="M90.1328 30.6341C92.032 30.1324 94.0028 30.1324 95.902 30.6341" stroke="#1B4266" stroke-width="5.375" stroke-linecap="round" stroke-linejoin="round"/>
<path d="M93 68.0859V78.8359" stroke="#1B4266" stroke-width="5.375" stroke-linecap="round" stroke-linejoin="round"/>
</svg>
