<svg width="15" height="15" viewBox="0 0 15 15" fill="none" xmlns="http://www.w3.org/2000/svg">
<path d="M10.1172 7.85131V9.609C10.1172 11.9526 9.1651 12.89 6.78489 12.89H4.5237C2.14349 12.89 1.19141 11.9526 1.19141 9.609V7.38259C1.19141 5.039 2.14349 4.10156 4.5237 4.10156H6.30885" stroke="#1B4266" stroke-width="0.878846" stroke-linecap="round" stroke-linejoin="round"/>
<path d="M10.1169 7.85131H8.21276C6.78464 7.85131 6.30859 7.38259 6.30859 5.97643V4.10156L10.1169 7.85131Z" stroke="#1B4266" stroke-width="0.878846" stroke-linecap="round" stroke-linejoin="round"/>
<path d="M6.90234 1.17188H9.28255" stroke="#1B4266" stroke-width="0.878846" stroke-linecap="round" stroke-linejoin="round"/>
<path d="M4.16406 2.92957C4.16406 1.95698 4.96143 1.17188 5.94922 1.17188H7.50825" stroke="#1B4266" stroke-width="0.878846" stroke-linecap="round" stroke-linejoin="round"/>
<path d="M13.0901 4.6875V8.3142C13.0901 9.22235 12.3403 9.96058 11.418 9.96058" stroke="#1B4266" stroke-width="0.878846" stroke-linecap="round" stroke-linejoin="round"/>
<path d="M13.0898 4.68726H11.3047C9.96582 4.68726 9.51953 4.24784 9.51953 2.92957V1.17188L13.0898 4.68726Z" stroke="#1B4266" stroke-width="0.878846" stroke-linecap="round" stroke-linejoin="round"/>
</svg>
