<svg width="155" height="155" viewBox="0 0 155 155" fill="none" xmlns="http://www.w3.org/2000/svg">
<rect width="155" height="155" rx="77.5" fill="#C3DEF6"/>
<path d="M78.4987 86.3984C84.1158 86.3984 88.6654 81.8488 88.6654 76.2318V62.2526C88.6654 56.6355 84.1158 52.0859 78.4987 52.0859C72.8816 52.0859 68.332 56.6355 68.332 62.2526V76.2318C68.332 81.8488 72.8816 86.3984 78.4987 86.3984Z" stroke="#1B4266" stroke-width="3.8125" stroke-linecap="round" stroke-linejoin="round"/>
<path d="M59.0547 71.5234V75.8443C59.0547 86.5701 67.7726 95.288 78.4984 95.288C89.2243 95.288 97.9422 86.5701 97.9422 75.8443V71.5234" stroke="#1B4266" stroke-width="3.8125" stroke-linecap="round" stroke-linejoin="round"/>
<path d="M74.9688 63.34C77.2562 62.5013 79.7471 62.5013 82.0346 63.34" stroke="#1B4266" stroke-width="3.8125" stroke-linecap="round" stroke-linejoin="round"/>
<path d="M76.4648 68.7278C77.8119 68.372 79.2098 68.372 80.5569 68.7278" stroke="#1B4266" stroke-width="3.8125" stroke-linecap="round" stroke-linejoin="round"/>
<path d="M78.5 95.2891V102.914" stroke="#1B4266" stroke-width="3.8125" stroke-linecap="round" stroke-linejoin="round"/>
</svg>
