<svg width="61" height="61" viewBox="0 0 61 61" fill="none" xmlns="http://www.w3.org/2000/svg">
<path d="M30.4987 39.3984C36.1158 39.3984 40.6654 34.8488 40.6654 29.2318V15.2526C40.6654 9.63552 36.1158 5.08594 30.4987 5.08594C24.8816 5.08594 20.332 9.63552 20.332 15.2526V29.2318C20.332 34.8488 24.8816 39.3984 30.4987 39.3984Z" stroke="#1B4266" stroke-width="3.8125" stroke-linecap="round" stroke-linejoin="round"/>
<path d="M11.0547 24.5234V28.8443C11.0547 39.5701 19.7726 48.288 30.4984 48.288C41.2243 48.288 49.9422 39.5701 49.9422 28.8443V24.5234" stroke="#1B4266" stroke-width="3.8125" stroke-linecap="round" stroke-linejoin="round"/>
<path d="M26.9688 16.34C29.2562 15.5013 31.7471 15.5013 34.0346 16.34" stroke="#1B4266" stroke-width="3.8125" stroke-linecap="round" stroke-linejoin="round"/>
<path d="M28.4648 21.7278C29.8119 21.372 31.2098 21.372 32.5569 21.7278" stroke="#1B4266" stroke-width="3.8125" stroke-linecap="round" stroke-linejoin="round"/>
<path d="M30.5 48.2891V55.9141" stroke="#1B4266" stroke-width="3.8125" stroke-linecap="round" stroke-linejoin="round"/>
</svg>
