<svg width="19" height="20" viewBox="0 0 19 20" fill="none" xmlns="http://www.w3.org/2000/svg">
<path d="M14.8674 9.3515H13.5372C13.5372 9.95339 13.412 10.5146 13.2007 11.0189L14.1632 12.0193C14.6014 11.2222 14.8674 10.3194 14.8674 9.3515ZM11.7218 9.48977C11.7218 9.44097 11.7375 9.4003 11.7375 9.3515V4.47133C11.7375 3.12115 10.6889 2.03125 9.39002 2.03125C8.0911 2.03125 7.04257 3.12115 7.04257 4.47133V4.61774L11.7218 9.48977ZM3.34141 2.84461L2.34766 3.87758L7.05039 8.76588V9.3515C7.05039 10.7017 8.0911 11.7916 9.39002 11.7916C9.56217 11.7916 9.73432 11.7672 9.89864 11.7265L11.1976 13.0767C10.642 13.3451 10.0238 13.4996 9.39002 13.4996C7.23036 13.4996 5.24285 11.7916 5.24285 9.3515H3.91263C3.91263 12.1251 6.04099 14.4187 8.60754 14.8173V17.4851H10.1725V14.8173C10.8846 14.7116 11.5575 14.4513 12.16 14.0853L15.4386 17.4851L16.4324 16.4521L3.34141 2.84461Z" fill="#353535"/>
</svg>
