<svg width="104" height="104" viewBox="0 0 104 104" fill="none" xmlns="http://www.w3.org/2000/svg">
<path d="M29.9013 89.2641C36.4013 93.1641 44.2013 95.3307 52.0013 95.3307C75.8346 95.3307 95.3346 75.8307 95.3346 51.9974C95.3346 28.1641 75.8346 8.66406 52.0013 8.66406C28.168 8.66406 8.66797 28.1641 8.66797 51.9974C8.66797 59.7974 10.8346 67.1641 14.3013 73.6641L10.5766 87.99C9.73275 91.2354 12.7366 94.1682 15.9609 93.247L29.9013 89.2641Z" stroke="#1B4266" stroke-width="4" stroke-miterlimit="10" stroke-linecap="round" stroke-linejoin="round"/>
<path d="M71.5 64.3435C71.5 65.0455 71.3438 65.767 71.0118 66.469C70.6798 67.171 70.2501 67.834 69.6838 68.458C68.7268 69.511 67.6723 70.2715 66.481 70.759C65.3092 71.2465 64.0398 71.5 62.6728 71.5C60.6808 71.5 58.5521 71.032 56.3062 70.0765C54.0603 69.121 51.8145 67.834 49.5881 66.2155C47.3423 64.5775 45.2136 62.764 43.1825 60.7555C41.171 58.7275 39.3548 56.602 37.7339 54.379C36.1324 52.156 34.8435 49.933 33.9061 47.7295C32.9687 45.5065 32.5 43.381 32.5 41.353C32.5 40.027 32.7344 38.7595 33.2031 37.5895C33.6718 36.4 34.4139 35.308 35.4489 34.333C36.6988 33.1045 38.0658 32.5 39.511 32.5C40.0578 32.5 40.6047 32.617 41.0929 32.851C41.6007 33.085 42.0498 33.436 42.4014 33.943L46.9321 40.3195C47.2837 40.807 47.5376 41.2555 47.7133 41.6845C47.8891 42.094 47.9867 42.5035 47.9867 42.874C47.9867 43.342 47.85 43.81 47.5766 44.2585C47.3227 44.707 46.9517 45.175 46.483 45.643L44.9987 47.1835C44.7839 47.398 44.6863 47.6515 44.6863 47.9635C44.6863 48.1195 44.7058 48.256 44.7449 48.412C44.8035 48.568 44.862 48.685 44.9011 48.802C45.2526 49.4455 45.858 50.284 46.7173 51.298C47.5961 52.312 48.5335 53.3455 49.5491 54.379C50.6037 55.4125 51.6192 56.368 52.6542 57.2455C53.6698 58.1035 54.5095 58.6885 55.1735 59.0395C55.2712 59.0785 55.3883 59.137 55.525 59.1955C55.6813 59.254 55.8375 59.2735 56.0133 59.2735C56.3453 59.2735 56.5991 59.1565 56.814 58.942L58.2982 57.4795C58.7864 56.992 59.2551 56.6215 59.7043 56.3875C60.1535 56.1145 60.6027 55.978 61.0909 55.978C61.4619 55.978 61.8525 56.056 62.2822 56.2315C62.7118 56.407 63.161 56.6605 63.6492 56.992L70.1134 61.5745C70.6212 61.9255 70.9727 62.335 71.1875 62.8225C71.3828 63.31 71.5 63.7975 71.5 64.3435Z" stroke="#1B4266" stroke-width="4" stroke-miterlimit="10"/>
</svg>
